REM DIRINDEX 1\5,1\2\6,1\2\7,1\3\8,1\3\9,1\3\10,1\3\11,1\4\12,1\4\13,1\4\14
REM DIRNAME cjc043,folder01,folder02,folder03,folder04,folder05,folder06,folder07,folder08,folder09,folder10,folder11,folder12,folder13
TITLE ""
FILE "5Q_t_439-454.mp3" MP3
  TRACK 01 AUDIO
    TITLE "5:cjc043_1299"
    INDEX 01 00:00:00
  TRACK 02 AUDIO
    TITLE "0:"
    INDEX 01 00:01:69
  TRACK 03 AUDIO
    TITLE "6:cjc043_1300"
    INDEX 01 00:02:45
  TRACK 04 AUDIO
    TITLE "0:"
    INDEX 01 00:03:57
  TRACK 05 AUDIO
    TITLE "7:cjc043_1301"
    INDEX 01 00:04:36
  TRACK 06 AUDIO
    TITLE "0:"
    INDEX 01 00:05:38
  TRACK 07 AUDIO
    TITLE "6:cjc043_1302"
    INDEX 01 00:06:10
  TRACK 08 AUDIO
    TITLE "0:"
    INDEX 01 00:07:15
  TRACK 09 AUDIO
    TITLE "7:cjc043_1303"
    INDEX 01 00:07:68
  TRACK 10 AUDIO
    TITLE "0:"
    INDEX 01 00:09:24
  TRACK 11 AUDIO
    TITLE "6:cjc043_1304"
    INDEX 01 00:10:02
  TRACK 12 AUDIO
    TITLE "0:"
    INDEX 01 00:10:68
  TRACK 13 AUDIO
    TITLE "7:cjc043_1305"
    INDEX 01 00:11:46
  TRACK 14 AUDIO
    TITLE "0:"
    INDEX 01 00:12:48
  TRACK 15 AUDIO
    TITLE "6:cjc043_1306"
    INDEX 01 00:13:28
  TRACK 16 AUDIO
    TITLE "0:"
    INDEX 01 00:14:29
  TRACK 17 AUDIO
    TITLE "7:cjc043_1307"
    INDEX 01 00:15:07
  TRACK 18 AUDIO
    TITLE "0:"
    INDEX 01 00:16:22
  TRACK 19 AUDIO
    TITLE "6:cjc043_1308"
    INDEX 01 00:17:00
  TRACK 20 AUDIO
    TITLE "0:"
    INDEX 01 00:18:09
  TRACK 21 AUDIO
    TITLE "7:cjc043_1309"
    INDEX 01 00:18:60
  TRACK 22 AUDIO
    TITLE "0:"
    INDEX 01 00:20:10
  TRACK 23 AUDIO
    TITLE "6:cjc043_1310"
    INDEX 01 00:20:61
  TRACK 24 AUDIO
    TITLE "0:"
    INDEX 01 00:21:72
  TRACK 25 AUDIO
    TITLE "7:cjc043_1311"
    INDEX 01 00:22:54
  TRACK 26 AUDIO
    TITLE "0:"
    INDEX 01 00:23:63
  TRACK 27 AUDIO
    TITLE "6:cjc043_1312"
    INDEX 01 00:24:39
  TRACK 28 AUDIO
    TITLE "0:"
    INDEX 01 00:25:58
  TRACK 29 AUDIO
    TITLE "7:cjc043_1313"
    INDEX 01 00:26:36
  TRACK 30 AUDIO
    TITLE "0:"
    INDEX 01 00:27:32
  TRACK 31 AUDIO
    TITLE "6:cjc043_1314"
    INDEX 01 00:28:10
  TRACK 32 AUDIO
    TITLE "0:"
    INDEX 01 00:29:15
  TRACK 33 AUDIO
    TITLE "7:cjc043_1315"
    INDEX 01 00:29:64
  TRACK 34 AUDIO
    TITLE "0:"
    INDEX 01 00:30:65
  TRACK 35 AUDIO
    TITLE "6:cjc043_1316"
    INDEX 01 00:31:45
  TRACK 36 AUDIO
    TITLE "0:"
    INDEX 01 00:32:43
  TRACK 37 AUDIO
    TITLE "7:cjc043_1317"
    INDEX 01 00:33:24
  TRACK 38 AUDIO
    TITLE "0:"
    INDEX 01 00:34:12
  TRACK 39 AUDIO
    TITLE "6:cjc043_1318"
    INDEX 01 00:34:73
  TRACK 40 AUDIO
    TITLE "0:"
    INDEX 01 00:36:15
  TRACK 41 AUDIO
    TITLE "7:cjc043_1319"
    INDEX 01 00:36:66
  TRACK 42 AUDIO
    TITLE "0:"
    INDEX 01 00:38:16
  TRACK 43 AUDIO
    TITLE "6:cjc043_1320"
    INDEX 01 00:38:67
  TRACK 44 AUDIO
    TITLE "0:"
    INDEX 01 00:39:72
  TRACK 45 AUDIO
    TITLE "7:cjc043_1321"
    INDEX 01 00:40:46
  TRACK 46 AUDIO
    TITLE "0:"
    INDEX 01 00:41:38
  TRACK 47 AUDIO
    TITLE "6:cjc043_1322"
    INDEX 01 00:42:18
  TRACK 48 AUDIO
    TITLE "0:"
    INDEX 01 00:43:13
  TRACK 49 AUDIO
    TITLE "7:cjc043_1323"
    INDEX 01 00:43:72
  TRACK 50 AUDIO
    TITLE "0:"
    INDEX 01 00:44:56
  TRACK 51 AUDIO
    TITLE "6:cjc043_1324"
    INDEX 01 00:45:39
  TRACK 52 AUDIO
    TITLE "0:"
    INDEX 01 00:46:54
  TRACK 53 AUDIO
    TITLE "7:cjc043_1325"
    INDEX 01 00:47:34
  TRACK 54 AUDIO
    TITLE "0:"
    INDEX 01 00:48:57
  TRACK 55 AUDIO
    TITLE "6:cjc043_1326"
    INDEX 01 00:49:37
  TRACK 56 AUDIO
    TITLE "0:"
    INDEX 01 00:50:52
  TRACK 57 AUDIO
    TITLE "7:cjc043_1327"
    INDEX 01 00:51:28
  TRACK 58 AUDIO
    TITLE "0:"
    INDEX 01 00:52:45
  TRACK 59 AUDIO
    TITLE "6:cjc043_1328"
    INDEX 01 00:53:15
  TRACK 60 AUDIO
    TITLE "0:"
    INDEX 01 00:54:23
  TRACK 61 AUDIO
    TITLE "7:cjc043_1329"
    INDEX 01 00:54:68
  TRACK 62 AUDIO
    TITLE "0:"
    INDEX 01 00:56:00
  TRACK 63 AUDIO
    TITLE "6:cjc043_1330"
    INDEX 01 00:56:53
  TRACK 64 AUDIO
    TITLE "0:"
    INDEX 01 00:57:62
  TRACK 65 AUDIO
    TITLE "7:cjc043_1331"
    INDEX 01 00:58:46
  TRACK 66 AUDIO
    TITLE "0:"
    INDEX 01 00:59:47
